<mxfile host="Electron" agent="Mozilla/5.0 (Windows NT 10.0; Win64; x64) AppleWebKit/537.36 (KHTML, like Gecko) draw.io/24.7.8 Chrome/128.0.6613.36 Electron/32.0.1 Safari/537.36" version="24.7.8" pages="5">
  <diagram name="HOME DESKTOP" id="03018318-947c-dd8e-b7a3-06fadd420f32">
    <mxGraphModel dx="1434" dy="836" grid="1" gridSize="10" guides="1" tooltips="1" connect="1" arrows="1" fold="1" page="1" pageScale="1" pageWidth="1100" pageHeight="850" background="#ffffff" math="0" shadow="0">
      <root>
        <mxCell id="0" />
        <mxCell id="1" parent="0" />
        <mxCell id="677b7b8949515195-10" value="" style="whiteSpace=wrap;html=1;rounded=0;shadow=0;labelBackgroundColor=none;strokeWidth=1;fillColor=none;fontFamily=Verdana;fontSize=12;align=center;comic=1;" parent="1" vertex="1">
          <mxGeometry x="30" y="115" width="1040" height="50" as="geometry" />
        </mxCell>
        <mxCell id="677b7b8949515195-1" value="" style="whiteSpace=wrap;html=1;rounded=0;shadow=0;labelBackgroundColor=none;strokeColor=#000000;strokeWidth=1;fillColor=none;fontFamily=Verdana;fontSize=12;fontColor=#000000;align=center;comic=1;" parent="1" vertex="1">
          <mxGeometry x="20" y="20" width="1060" height="810" as="geometry" />
        </mxCell>
        <mxCell id="677b7b8949515195-2" value="LOGO" style="whiteSpace=wrap;html=1;rounded=0;shadow=0;labelBackgroundColor=none;strokeWidth=1;fontFamily=Verdana;fontSize=28;align=center;comic=1;" parent="1" vertex="1">
          <mxGeometry x="50" y="40" width="190" height="50" as="geometry" />
        </mxCell>
        <mxCell id="677b7b8949515195-4" value="accueil" style="text;html=1;points=[];align=left;verticalAlign=top;spacingTop=-4;fontSize=14;fontFamily=Verdana" parent="1" vertex="1">
          <mxGeometry x="230" y="130" width="60" height="20" as="geometry" />
        </mxCell>
        <mxCell id="677b7b8949515195-5" value="nom du site" style="text;html=1;points=[];align=left;verticalAlign=top;spacingTop=-4;fontSize=14;fontFamily=Verdana" parent="1" vertex="1">
          <mxGeometry x="417" y="50" width="123" height="25" as="geometry" />
        </mxCell>
        <mxCell id="677b7b8949515195-8" value="" style="whiteSpace=wrap;html=1;rounded=0;shadow=0;labelBackgroundColor=none;strokeWidth=1;fillColor=none;fontFamily=Verdana;fontSize=12;align=center;comic=1;" parent="1" vertex="1">
          <mxGeometry x="30" y="230" width="200" height="590" as="geometry" />
        </mxCell>
        <mxCell id="677b7b8949515195-11" value="NAV" style="text;html=1;points=[];align=left;verticalAlign=top;spacingTop=-4;fontSize=14;fontFamily=Verdana" parent="1" vertex="1">
          <mxGeometry x="50" y="130" width="60" height="20" as="geometry" />
        </mxCell>
        <mxCell id="677b7b8949515195-12" value="bibliothÃ¨que" style="text;html=1;points=[];align=left;verticalAlign=top;spacingTop=-4;fontSize=14;fontFamily=Verdana" parent="1" vertex="1">
          <mxGeometry x="330" y="130" width="100" height="20" as="geometry" />
        </mxCell>
        <mxCell id="677b7b8949515195-13" value="sheet" style="text;html=1;points=[];align=left;verticalAlign=top;spacingTop=-4;fontSize=14;fontFamily=Verdana" parent="1" vertex="1">
          <mxGeometry x="448.5" y="130" width="60" height="20" as="geometry" />
        </mxCell>
        <mxCell id="677b7b8949515195-14" value="profil" style="text;html=1;points=[];align=left;verticalAlign=top;spacingTop=-4;fontSize=14;fontFamily=Verdana" parent="1" vertex="1">
          <mxGeometry x="840" y="130" width="60" height="20" as="geometry" />
        </mxCell>
        <mxCell id="677b7b8949515195-16" value="" style="verticalLabelPosition=bottom;shadow=0;dashed=0;align=center;html=1;verticalAlign=top;strokeWidth=1;shape=mxgraph.mockup.graphics.simpleIcon;strokeColor=#999999;rounded=0;labelBackgroundColor=none;fontFamily=Verdana;fontSize=14;fontColor=#000000;comic=1;" parent="1" vertex="1">
          <mxGeometry x="250" y="230" width="580" height="590" as="geometry" />
        </mxCell>
        <mxCell id="677b7b8949515195-25" value="" style="whiteSpace=wrap;html=1;rounded=0;shadow=0;labelBackgroundColor=none;strokeWidth=1;fillColor=none;fontFamily=Verdana;fontSize=12;align=center;comic=1;" parent="1" vertex="1">
          <mxGeometry x="840" y="230" width="230" height="590" as="geometry" />
        </mxCell>
        <mxCell id="677b7b8949515195-27" value="Section 1" style="text;html=1;points=[];align=left;verticalAlign=top;spacingTop=-4;fontSize=14;fontFamily=Verdana" parent="1" vertex="1">
          <mxGeometry x="40" y="250" width="170" height="20" as="geometry" />
        </mxCell>
        <mxCell id="677b7b8949515195-28" value="Section 2" style="text;html=1;points=[];align=left;verticalAlign=top;spacingTop=-4;fontSize=14;fontFamily=Verdana" parent="1" vertex="1">
          <mxGeometry x="40" y="286" width="170" height="20" as="geometry" />
        </mxCell>
        <mxCell id="677b7b8949515195-29" value="Section 3" style="text;html=1;points=[];align=left;verticalAlign=top;spacingTop=-4;fontSize=14;fontFamily=Verdana" parent="1" vertex="1">
          <mxGeometry x="40" y="321" width="170" height="20" as="geometry" />
        </mxCell>
        <mxCell id="677b7b8949515195-30" value="Section 4" style="text;html=1;points=[];align=left;verticalAlign=top;spacingTop=-4;fontSize=14;fontFamily=Verdana" parent="1" vertex="1">
          <mxGeometry x="40" y="357" width="170" height="20" as="geometry" />
        </mxCell>
        <mxCell id="677b7b8949515195-31" value="Section 7" style="text;html=1;points=[];align=left;verticalAlign=top;spacingTop=-4;fontSize=14;fontFamily=Verdana" parent="1" vertex="1">
          <mxGeometry x="40" y="464" width="170" height="20" as="geometry" />
        </mxCell>
        <mxCell id="677b7b8949515195-32" value="Section 8" style="text;html=1;points=[];align=left;verticalAlign=top;spacingTop=-4;fontSize=14;fontFamily=Verdana" parent="1" vertex="1">
          <mxGeometry x="40" y="500" width="170" height="20" as="geometry" />
        </mxCell>
        <mxCell id="677b7b8949515195-33" value="Section 9" style="text;html=1;points=[];align=left;verticalAlign=top;spacingTop=-4;fontSize=14;fontFamily=Verdana" parent="1" vertex="1">
          <mxGeometry x="40" y="536" width="170" height="20" as="geometry" />
        </mxCell>
        <mxCell id="677b7b8949515195-34" value="Section 10" style="text;html=1;points=[];align=left;verticalAlign=top;spacingTop=-4;fontSize=14;fontFamily=Verdana" parent="1" vertex="1">
          <mxGeometry x="40" y="571" width="170" height="20" as="geometry" />
        </mxCell>
        <mxCell id="677b7b8949515195-35" value="Section 11" style="text;html=1;points=[];align=left;verticalAlign=top;spacingTop=-4;fontSize=14;fontFamily=Verdana" parent="1" vertex="1">
          <mxGeometry x="40" y="607" width="170" height="20" as="geometry" />
        </mxCell>
        <mxCell id="677b7b8949515195-36" value="Section 12" style="text;html=1;points=[];align=left;verticalAlign=top;spacingTop=-4;fontSize=14;fontFamily=Verdana" parent="1" vertex="1">
          <mxGeometry x="40" y="643" width="170" height="20" as="geometry" />
        </mxCell>
        <mxCell id="677b7b8949515195-37" value="Section 13" style="text;html=1;points=[];align=left;verticalAlign=top;spacingTop=-4;fontSize=14;fontFamily=Verdana" parent="1" vertex="1">
          <mxGeometry x="40" y="679" width="170" height="20" as="geometry" />
        </mxCell>
        <mxCell id="677b7b8949515195-38" value="Section 14" style="text;html=1;points=[];align=left;verticalAlign=top;spacingTop=-4;fontSize=14;fontFamily=Verdana" parent="1" vertex="1">
          <mxGeometry x="40" y="714" width="170" height="20" as="geometry" />
        </mxCell>
        <mxCell id="677b7b8949515195-39" value="Section 5" style="text;html=1;points=[];align=left;verticalAlign=top;spacingTop=-4;fontSize=14;fontFamily=Verdana" parent="1" vertex="1">
          <mxGeometry x="40" y="393" width="170" height="20" as="geometry" />
        </mxCell>
        <mxCell id="677b7b8949515195-40" value="Section 6" style="text;html=1;points=[];align=left;verticalAlign=top;spacingTop=-4;fontSize=14;fontFamily=Verdana" parent="1" vertex="1">
          <mxGeometry x="40" y="429" width="170" height="20" as="geometry" />
        </mxCell>
        <mxCell id="677b7b8949515195-41" value="Section 15" style="text;html=1;points=[];align=left;verticalAlign=top;spacingTop=-4;fontSize=14;fontFamily=Verdana" parent="1" vertex="1">
          <mxGeometry x="40" y="750" width="170" height="20" as="geometry" />
        </mxCell>
        <mxCell id="677b7b8949515195-44" value="Feature 1" style="text;html=1;points=[];align=left;verticalAlign=top;spacingTop=-4;fontSize=14;fontFamily=Verdana" parent="1" vertex="1">
          <mxGeometry x="860" y="250" width="170" height="20" as="geometry" />
        </mxCell>
        <mxCell id="677b7b8949515195-45" value="Feature 2" style="text;html=1;points=[];align=left;verticalAlign=top;spacingTop=-4;fontSize=14;fontFamily=Verdana" parent="1" vertex="1">
          <mxGeometry x="860" y="285" width="170" height="20" as="geometry" />
        </mxCell>
        <mxCell id="677b7b8949515195-46" value="Feature 3" style="text;html=1;points=[];align=left;verticalAlign=top;spacingTop=-4;fontSize=14;fontFamily=Verdana" parent="1" vertex="1">
          <mxGeometry x="860" y="320" width="170" height="20" as="geometry" />
        </mxCell>
        <mxCell id="677b7b8949515195-47" value="Feature 4" style="text;html=1;points=[];align=left;verticalAlign=top;spacingTop=-4;fontSize=14;fontFamily=Verdana" parent="1" vertex="1">
          <mxGeometry x="860" y="355" width="170" height="20" as="geometry" />
        </mxCell>
        <mxCell id="677b7b8949515195-48" value="Feature 5" style="text;html=1;points=[];align=left;verticalAlign=top;spacingTop=-4;fontSize=14;fontFamily=Verdana" parent="1" vertex="1">
          <mxGeometry x="860" y="390" width="170" height="20" as="geometry" />
        </mxCell>
        <mxCell id="677b7b8949515195-49" value="Feature 6" style="text;html=1;points=[];align=left;verticalAlign=top;spacingTop=-4;fontSize=14;fontFamily=Verdana" parent="1" vertex="1">
          <mxGeometry x="860" y="425" width="170" height="20" as="geometry" />
        </mxCell>
        <mxCell id="TduPPMGWhFyPRui_iwuS-3" value="connection" style="text;html=1;points=[];align=left;verticalAlign=top;spacingTop=-4;fontSize=14;fontFamily=Verdana" vertex="1" parent="1">
          <mxGeometry x="545" y="130" width="90" height="20" as="geometry" />
        </mxCell>
        <mxCell id="TduPPMGWhFyPRui_iwuS-4" value="inscription" style="text;html=1;points=[];align=left;verticalAlign=top;spacingTop=-4;fontSize=14;fontFamily=Verdana" vertex="1" parent="1">
          <mxGeometry x="650" y="130" width="90" height="20" as="geometry" />
        </mxCell>
        <mxCell id="TduPPMGWhFyPRui_iwuS-8" value="" style="edgeStyle=orthogonalEdgeStyle;rounded=0;orthogonalLoop=1;jettySize=auto;html=1;" edge="1" parent="1" source="TduPPMGWhFyPRui_iwuS-5" target="TduPPMGWhFyPRui_iwuS-7">
          <mxGeometry relative="1" as="geometry" />
        </mxCell>
        <mxCell id="TduPPMGWhFyPRui_iwuS-5" value="" style="rounded=0;whiteSpace=wrap;html=1;fillColor=none;" vertex="1" parent="1">
          <mxGeometry x="530" y="120" width="210" height="40" as="geometry" />
        </mxCell>
        <mxCell id="TduPPMGWhFyPRui_iwuS-7" value="" style="rounded=0;whiteSpace=wrap;html=1;fillColor=none;" vertex="1" parent="1">
          <mxGeometry x="820" y="120" width="210" height="40" as="geometry" />
        </mxCell>
        <mxCell id="TduPPMGWhFyPRui_iwuS-9" value="logout" style="text;html=1;points=[];align=left;verticalAlign=top;spacingTop=-4;fontSize=14;fontFamily=Verdana" vertex="1" parent="1">
          <mxGeometry x="925" y="130" width="60" height="20" as="geometry" />
        </mxCell>
        <mxCell id="TduPPMGWhFyPRui_iwuS-10" value="HOME DESKTOP" style="rounded=0;whiteSpace=wrap;html=1;" vertex="1" parent="1">
          <mxGeometry x="980" width="120" height="40" as="geometry" />
        </mxCell>
      </root>
    </mxGraphModel>
  </diagram>
  <diagram name="BIBLITHEQUE DESKTOP" id="a__9SUN8DHrn17DNHw5P">
    <mxGraphModel dx="1434" dy="836" grid="1" gridSize="10" guides="1" tooltips="1" connect="1" arrows="1" fold="1" page="1" pageScale="1" pageWidth="1100" pageHeight="850" background="#ffffff" math="0" shadow="0">
      <root>
        <mxCell id="iFGVRWnmcOkBloCwEFkq-0" />
        <mxCell id="iFGVRWnmcOkBloCwEFkq-1" parent="iFGVRWnmcOkBloCwEFkq-0" />
        <mxCell id="iFGVRWnmcOkBloCwEFkq-2" value="" style="whiteSpace=wrap;html=1;rounded=0;shadow=0;labelBackgroundColor=none;strokeWidth=1;fillColor=none;fontFamily=Verdana;fontSize=12;align=center;comic=1;" vertex="1" parent="iFGVRWnmcOkBloCwEFkq-1">
          <mxGeometry x="30" y="115" width="1040" height="50" as="geometry" />
        </mxCell>
        <mxCell id="iFGVRWnmcOkBloCwEFkq-3" value="" style="whiteSpace=wrap;html=1;rounded=0;shadow=0;labelBackgroundColor=none;strokeColor=#000000;strokeWidth=1;fillColor=none;fontFamily=Verdana;fontSize=12;fontColor=#000000;align=center;comic=1;" vertex="1" parent="iFGVRWnmcOkBloCwEFkq-1">
          <mxGeometry x="20" y="20" width="1060" height="810" as="geometry" />
        </mxCell>
        <mxCell id="iFGVRWnmcOkBloCwEFkq-4" value="LOGO" style="whiteSpace=wrap;html=1;rounded=0;shadow=0;labelBackgroundColor=none;strokeWidth=1;fontFamily=Verdana;fontSize=28;align=center;comic=1;" vertex="1" parent="iFGVRWnmcOkBloCwEFkq-1">
          <mxGeometry x="50" y="40" width="190" height="50" as="geometry" />
        </mxCell>
        <mxCell id="iFGVRWnmcOkBloCwEFkq-5" value="accueil" style="text;html=1;points=[];align=left;verticalAlign=top;spacingTop=-4;fontSize=14;fontFamily=Verdana" vertex="1" parent="iFGVRWnmcOkBloCwEFkq-1">
          <mxGeometry x="230" y="130" width="60" height="20" as="geometry" />
        </mxCell>
        <mxCell id="iFGVRWnmcOkBloCwEFkq-6" value="nom du site" style="text;html=1;points=[];align=left;verticalAlign=top;spacingTop=-4;fontSize=14;fontFamily=Verdana" vertex="1" parent="iFGVRWnmcOkBloCwEFkq-1">
          <mxGeometry x="417" y="50" width="123" height="25" as="geometry" />
        </mxCell>
        <mxCell id="iFGVRWnmcOkBloCwEFkq-7" value="" style="whiteSpace=wrap;html=1;rounded=0;shadow=0;labelBackgroundColor=none;strokeWidth=1;fillColor=none;fontFamily=Verdana;fontSize=12;align=center;comic=1;" vertex="1" parent="iFGVRWnmcOkBloCwEFkq-1">
          <mxGeometry x="30" y="230" width="200" height="590" as="geometry" />
        </mxCell>
        <mxCell id="iFGVRWnmcOkBloCwEFkq-8" value="NAV" style="text;html=1;points=[];align=left;verticalAlign=top;spacingTop=-4;fontSize=14;fontFamily=Verdana" vertex="1" parent="iFGVRWnmcOkBloCwEFkq-1">
          <mxGeometry x="50" y="130" width="60" height="20" as="geometry" />
        </mxCell>
        <mxCell id="iFGVRWnmcOkBloCwEFkq-9" value="bibliothÃ¨que" style="text;html=1;points=[];align=left;verticalAlign=top;spacingTop=-4;fontSize=14;fontFamily=Verdana" vertex="1" parent="iFGVRWnmcOkBloCwEFkq-1">
          <mxGeometry x="330" y="130" width="100" height="20" as="geometry" />
        </mxCell>
        <mxCell id="iFGVRWnmcOkBloCwEFkq-10" value="sheet" style="text;html=1;points=[];align=left;verticalAlign=top;spacingTop=-4;fontSize=14;fontFamily=Verdana" vertex="1" parent="iFGVRWnmcOkBloCwEFkq-1">
          <mxGeometry x="448.5" y="130" width="60" height="20" as="geometry" />
        </mxCell>
        <mxCell id="iFGVRWnmcOkBloCwEFkq-11" value="profil" style="text;html=1;points=[];align=left;verticalAlign=top;spacingTop=-4;fontSize=14;fontFamily=Verdana" vertex="1" parent="iFGVRWnmcOkBloCwEFkq-1">
          <mxGeometry x="840" y="130" width="60" height="20" as="geometry" />
        </mxCell>
        <mxCell id="iFGVRWnmcOkBloCwEFkq-12" value="" style="verticalLabelPosition=bottom;shadow=0;dashed=0;align=center;html=1;verticalAlign=top;strokeWidth=1;shape=mxgraph.mockup.graphics.simpleIcon;strokeColor=#999999;rounded=0;labelBackgroundColor=none;fontFamily=Verdana;fontSize=14;fontColor=#000000;comic=1;" vertex="1" parent="iFGVRWnmcOkBloCwEFkq-1">
          <mxGeometry x="250" y="230" width="580" height="590" as="geometry" />
        </mxCell>
        <mxCell id="iFGVRWnmcOkBloCwEFkq-13" value="" style="whiteSpace=wrap;html=1;rounded=0;shadow=0;labelBackgroundColor=none;strokeWidth=1;fillColor=none;fontFamily=Verdana;fontSize=12;align=center;comic=1;" vertex="1" parent="iFGVRWnmcOkBloCwEFkq-1">
          <mxGeometry x="840" y="230" width="230" height="590" as="geometry" />
        </mxCell>
        <mxCell id="iFGVRWnmcOkBloCwEFkq-14" value="Section 1" style="text;html=1;points=[];align=left;verticalAlign=top;spacingTop=-4;fontSize=14;fontFamily=Verdana" vertex="1" parent="iFGVRWnmcOkBloCwEFkq-1">
          <mxGeometry x="40" y="250" width="170" height="20" as="geometry" />
        </mxCell>
        <mxCell id="iFGVRWnmcOkBloCwEFkq-15" value="Section 2" style="text;html=1;points=[];align=left;verticalAlign=top;spacingTop=-4;fontSize=14;fontFamily=Verdana" vertex="1" parent="iFGVRWnmcOkBloCwEFkq-1">
          <mxGeometry x="40" y="286" width="170" height="20" as="geometry" />
        </mxCell>
        <mxCell id="iFGVRWnmcOkBloCwEFkq-16" value="Section 3" style="text;html=1;points=[];align=left;verticalAlign=top;spacingTop=-4;fontSize=14;fontFamily=Verdana" vertex="1" parent="iFGVRWnmcOkBloCwEFkq-1">
          <mxGeometry x="40" y="321" width="170" height="20" as="geometry" />
        </mxCell>
        <mxCell id="iFGVRWnmcOkBloCwEFkq-17" value="Section 4" style="text;html=1;points=[];align=left;verticalAlign=top;spacingTop=-4;fontSize=14;fontFamily=Verdana" vertex="1" parent="iFGVRWnmcOkBloCwEFkq-1">
          <mxGeometry x="40" y="357" width="170" height="20" as="geometry" />
        </mxCell>
        <mxCell id="iFGVRWnmcOkBloCwEFkq-18" value="Section 7" style="text;html=1;points=[];align=left;verticalAlign=top;spacingTop=-4;fontSize=14;fontFamily=Verdana" vertex="1" parent="iFGVRWnmcOkBloCwEFkq-1">
          <mxGeometry x="40" y="464" width="170" height="20" as="geometry" />
        </mxCell>
        <mxCell id="iFGVRWnmcOkBloCwEFkq-19" value="Section 8" style="text;html=1;points=[];align=left;verticalAlign=top;spacingTop=-4;fontSize=14;fontFamily=Verdana" vertex="1" parent="iFGVRWnmcOkBloCwEFkq-1">
          <mxGeometry x="40" y="500" width="170" height="20" as="geometry" />
        </mxCell>
        <mxCell id="iFGVRWnmcOkBloCwEFkq-20" value="Section 9" style="text;html=1;points=[];align=left;verticalAlign=top;spacingTop=-4;fontSize=14;fontFamily=Verdana" vertex="1" parent="iFGVRWnmcOkBloCwEFkq-1">
          <mxGeometry x="40" y="536" width="170" height="20" as="geometry" />
        </mxCell>
        <mxCell id="iFGVRWnmcOkBloCwEFkq-21" value="Section 10" style="text;html=1;points=[];align=left;verticalAlign=top;spacingTop=-4;fontSize=14;fontFamily=Verdana" vertex="1" parent="iFGVRWnmcOkBloCwEFkq-1">
          <mxGeometry x="40" y="571" width="170" height="20" as="geometry" />
        </mxCell>
        <mxCell id="iFGVRWnmcOkBloCwEFkq-22" value="Section 11" style="text;html=1;points=[];align=left;verticalAlign=top;spacingTop=-4;fontSize=14;fontFamily=Verdana" vertex="1" parent="iFGVRWnmcOkBloCwEFkq-1">
          <mxGeometry x="40" y="607" width="170" height="20" as="geometry" />
        </mxCell>
        <mxCell id="iFGVRWnmcOkBloCwEFkq-23" value="Section 12" style="text;html=1;points=[];align=left;verticalAlign=top;spacingTop=-4;fontSize=14;fontFamily=Verdana" vertex="1" parent="iFGVRWnmcOkBloCwEFkq-1">
          <mxGeometry x="40" y="643" width="170" height="20" as="geometry" />
        </mxCell>
        <mxCell id="iFGVRWnmcOkBloCwEFkq-24" value="Section 13" style="text;html=1;points=[];align=left;verticalAlign=top;spacingTop=-4;fontSize=14;fontFamily=Verdana" vertex="1" parent="iFGVRWnmcOkBloCwEFkq-1">
          <mxGeometry x="40" y="679" width="170" height="20" as="geometry" />
        </mxCell>
        <mxCell id="iFGVRWnmcOkBloCwEFkq-25" value="Section 14" style="text;html=1;points=[];align=left;verticalAlign=top;spacingTop=-4;fontSize=14;fontFamily=Verdana" vertex="1" parent="iFGVRWnmcOkBloCwEFkq-1">
          <mxGeometry x="40" y="714" width="170" height="20" as="geometry" />
        </mxCell>
        <mxCell id="iFGVRWnmcOkBloCwEFkq-26" value="Section 5" style="text;html=1;points=[];align=left;verticalAlign=top;spacingTop=-4;fontSize=14;fontFamily=Verdana" vertex="1" parent="iFGVRWnmcOkBloCwEFkq-1">
          <mxGeometry x="40" y="393" width="170" height="20" as="geometry" />
        </mxCell>
        <mxCell id="iFGVRWnmcOkBloCwEFkq-27" value="Section 6" style="text;html=1;points=[];align=left;verticalAlign=top;spacingTop=-4;fontSize=14;fontFamily=Verdana" vertex="1" parent="iFGVRWnmcOkBloCwEFkq-1">
          <mxGeometry x="40" y="429" width="170" height="20" as="geometry" />
        </mxCell>
        <mxCell id="iFGVRWnmcOkBloCwEFkq-28" value="Section 15" style="text;html=1;points=[];align=left;verticalAlign=top;spacingTop=-4;fontSize=14;fontFamily=Verdana" vertex="1" parent="iFGVRWnmcOkBloCwEFkq-1">
          <mxGeometry x="40" y="750" width="170" height="20" as="geometry" />
        </mxCell>
        <mxCell id="iFGVRWnmcOkBloCwEFkq-29" value="Feature 1" style="text;html=1;points=[];align=left;verticalAlign=top;spacingTop=-4;fontSize=14;fontFamily=Verdana" vertex="1" parent="iFGVRWnmcOkBloCwEFkq-1">
          <mxGeometry x="860" y="250" width="170" height="20" as="geometry" />
        </mxCell>
        <mxCell id="iFGVRWnmcOkBloCwEFkq-30" value="Feature 2" style="text;html=1;points=[];align=left;verticalAlign=top;spacingTop=-4;fontSize=14;fontFamily=Verdana" vertex="1" parent="iFGVRWnmcOkBloCwEFkq-1">
          <mxGeometry x="860" y="285" width="170" height="20" as="geometry" />
        </mxCell>
        <mxCell id="iFGVRWnmcOkBloCwEFkq-31" value="Feature 3" style="text;html=1;points=[];align=left;verticalAlign=top;spacingTop=-4;fontSize=14;fontFamily=Verdana" vertex="1" parent="iFGVRWnmcOkBloCwEFkq-1">
          <mxGeometry x="860" y="320" width="170" height="20" as="geometry" />
        </mxCell>
        <mxCell id="iFGVRWnmcOkBloCwEFkq-32" value="Feature 4" style="text;html=1;points=[];align=left;verticalAlign=top;spacingTop=-4;fontSize=14;fontFamily=Verdana" vertex="1" parent="iFGVRWnmcOkBloCwEFkq-1">
          <mxGeometry x="860" y="355" width="170" height="20" as="geometry" />
        </mxCell>
        <mxCell id="iFGVRWnmcOkBloCwEFkq-33" value="Feature 5" style="text;html=1;points=[];align=left;verticalAlign=top;spacingTop=-4;fontSize=14;fontFamily=Verdana" vertex="1" parent="iFGVRWnmcOkBloCwEFkq-1">
          <mxGeometry x="860" y="390" width="170" height="20" as="geometry" />
        </mxCell>
        <mxCell id="iFGVRWnmcOkBloCwEFkq-34" value="Feature 6" style="text;html=1;points=[];align=left;verticalAlign=top;spacingTop=-4;fontSize=14;fontFamily=Verdana" vertex="1" parent="iFGVRWnmcOkBloCwEFkq-1">
          <mxGeometry x="860" y="425" width="170" height="20" as="geometry" />
        </mxCell>
        <mxCell id="iFGVRWnmcOkBloCwEFkq-35" value="connection" style="text;html=1;points=[];align=left;verticalAlign=top;spacingTop=-4;fontSize=14;fontFamily=Verdana" vertex="1" parent="iFGVRWnmcOkBloCwEFkq-1">
          <mxGeometry x="545" y="130" width="90" height="20" as="geometry" />
        </mxCell>
        <mxCell id="iFGVRWnmcOkBloCwEFkq-36" value="inscription" style="text;html=1;points=[];align=left;verticalAlign=top;spacingTop=-4;fontSize=14;fontFamily=Verdana" vertex="1" parent="iFGVRWnmcOkBloCwEFkq-1">
          <mxGeometry x="650" y="130" width="90" height="20" as="geometry" />
        </mxCell>
        <mxCell id="iFGVRWnmcOkBloCwEFkq-37" value="" style="edgeStyle=orthogonalEdgeStyle;rounded=0;orthogonalLoop=1;jettySize=auto;html=1;" edge="1" parent="iFGVRWnmcOkBloCwEFkq-1" source="iFGVRWnmcOkBloCwEFkq-38" target="iFGVRWnmcOkBloCwEFkq-39">
          <mxGeometry relative="1" as="geometry" />
        </mxCell>
        <mxCell id="iFGVRWnmcOkBloCwEFkq-38" value="" style="rounded=0;whiteSpace=wrap;html=1;fillColor=none;" vertex="1" parent="iFGVRWnmcOkBloCwEFkq-1">
          <mxGeometry x="530" y="120" width="210" height="40" as="geometry" />
        </mxCell>
        <mxCell id="iFGVRWnmcOkBloCwEFkq-39" value="" style="rounded=0;whiteSpace=wrap;html=1;fillColor=none;" vertex="1" parent="iFGVRWnmcOkBloCwEFkq-1">
          <mxGeometry x="820" y="120" width="210" height="40" as="geometry" />
        </mxCell>
        <mxCell id="iFGVRWnmcOkBloCwEFkq-40" value="logout" style="text;html=1;points=[];align=left;verticalAlign=top;spacingTop=-4;fontSize=14;fontFamily=Verdana" vertex="1" parent="iFGVRWnmcOkBloCwEFkq-1">
          <mxGeometry x="925" y="130" width="60" height="20" as="geometry" />
        </mxCell>
        <mxCell id="iFGVRWnmcOkBloCwEFkq-41" value="HOME DESKTOP" style="rounded=0;whiteSpace=wrap;html=1;" vertex="1" parent="iFGVRWnmcOkBloCwEFkq-1">
          <mxGeometry x="980" width="120" height="40" as="geometry" />
        </mxCell>
      </root>
    </mxGraphModel>
  </diagram>
  <diagram name="SHEET DESKTOP" id="dgvaXXNBbPx5C2iwxm3Y">
    <mxGraphModel dx="1434" dy="836" grid="1" gridSize="10" guides="1" tooltips="1" connect="1" arrows="1" fold="1" page="1" pageScale="1" pageWidth="1100" pageHeight="850" background="#ffffff" math="0" shadow="0">
      <root>
        <mxCell id="ng6SaOLeytDzQV_BBr2D-0" />
        <mxCell id="ng6SaOLeytDzQV_BBr2D-1" parent="ng6SaOLeytDzQV_BBr2D-0" />
        <mxCell id="ng6SaOLeytDzQV_BBr2D-2" value="" style="whiteSpace=wrap;html=1;rounded=0;shadow=0;labelBackgroundColor=none;strokeWidth=1;fillColor=none;fontFamily=Verdana;fontSize=12;align=center;comic=1;" parent="ng6SaOLeytDzQV_BBr2D-1" vertex="1">
          <mxGeometry x="30" y="115" width="1040" height="50" as="geometry" />
        </mxCell>
        <mxCell id="ng6SaOLeytDzQV_BBr2D-3" value="" style="whiteSpace=wrap;html=1;rounded=0;shadow=0;labelBackgroundColor=none;strokeColor=#000000;strokeWidth=1;fillColor=none;fontFamily=Verdana;fontSize=12;fontColor=#000000;align=center;comic=1;" parent="ng6SaOLeytDzQV_BBr2D-1" vertex="1">
          <mxGeometry x="20" y="20" width="1060" height="810" as="geometry" />
        </mxCell>
        <mxCell id="ng6SaOLeytDzQV_BBr2D-4" value="LOGO" style="whiteSpace=wrap;html=1;rounded=0;shadow=0;labelBackgroundColor=none;strokeWidth=1;fontFamily=Verdana;fontSize=28;align=center;comic=1;" parent="ng6SaOLeytDzQV_BBr2D-1" vertex="1">
          <mxGeometry x="50" y="40" width="190" height="50" as="geometry" />
        </mxCell>
        <mxCell id="ng6SaOLeytDzQV_BBr2D-5" value="accueil" style="text;html=1;points=[];align=left;verticalAlign=top;spacingTop=-4;fontSize=14;fontFamily=Verdana" parent="ng6SaOLeytDzQV_BBr2D-1" vertex="1">
          <mxGeometry x="230" y="130" width="60" height="20" as="geometry" />
        </mxCell>
        <mxCell id="ng6SaOLeytDzQV_BBr2D-6" value="nom du site" style="text;html=1;points=[];align=left;verticalAlign=top;spacingTop=-4;fontSize=14;fontFamily=Verdana" parent="ng6SaOLeytDzQV_BBr2D-1" vertex="1">
          <mxGeometry x="417" y="50" width="123" height="25" as="geometry" />
        </mxCell>
        <mxCell id="ng6SaOLeytDzQV_BBr2D-7" value="" style="whiteSpace=wrap;html=1;rounded=0;shadow=0;labelBackgroundColor=none;strokeWidth=1;fillColor=none;fontFamily=Verdana;fontSize=12;align=center;comic=1;" parent="ng6SaOLeytDzQV_BBr2D-1" vertex="1">
          <mxGeometry x="30" y="230" width="200" height="590" as="geometry" />
        </mxCell>
        <mxCell id="ng6SaOLeytDzQV_BBr2D-8" value="NAV" style="text;html=1;points=[];align=left;verticalAlign=top;spacingTop=-4;fontSize=14;fontFamily=Verdana" parent="ng6SaOLeytDzQV_BBr2D-1" vertex="1">
          <mxGeometry x="50" y="130" width="60" height="20" as="geometry" />
        </mxCell>
        <mxCell id="ng6SaOLeytDzQV_BBr2D-9" value="bibliothÃ¨que" style="text;html=1;points=[];align=left;verticalAlign=top;spacingTop=-4;fontSize=14;fontFamily=Verdana" parent="ng6SaOLeytDzQV_BBr2D-1" vertex="1">
          <mxGeometry x="330" y="130" width="100" height="20" as="geometry" />
        </mxCell>
        <mxCell id="ng6SaOLeytDzQV_BBr2D-10" value="sheet" style="text;html=1;points=[];align=left;verticalAlign=top;spacingTop=-4;fontSize=14;fontFamily=Verdana" parent="ng6SaOLeytDzQV_BBr2D-1" vertex="1">
          <mxGeometry x="448.5" y="130" width="60" height="20" as="geometry" />
        </mxCell>
        <mxCell id="ng6SaOLeytDzQV_BBr2D-11" value="profil" style="text;html=1;points=[];align=left;verticalAlign=top;spacingTop=-4;fontSize=14;fontFamily=Verdana" parent="ng6SaOLeytDzQV_BBr2D-1" vertex="1">
          <mxGeometry x="840" y="130" width="60" height="20" as="geometry" />
        </mxCell>
        <mxCell id="ng6SaOLeytDzQV_BBr2D-12" value="" style="verticalLabelPosition=bottom;shadow=0;dashed=0;align=center;html=1;verticalAlign=top;strokeWidth=1;shape=mxgraph.mockup.graphics.simpleIcon;strokeColor=#999999;rounded=0;labelBackgroundColor=none;fontFamily=Verdana;fontSize=14;fontColor=#000000;comic=1;" parent="ng6SaOLeytDzQV_BBr2D-1" vertex="1">
          <mxGeometry x="250" y="230" width="580" height="590" as="geometry" />
        </mxCell>
        <mxCell id="ng6SaOLeytDzQV_BBr2D-13" value="" style="whiteSpace=wrap;html=1;rounded=0;shadow=0;labelBackgroundColor=none;strokeWidth=1;fillColor=none;fontFamily=Verdana;fontSize=12;align=center;comic=1;" parent="ng6SaOLeytDzQV_BBr2D-1" vertex="1">
          <mxGeometry x="840" y="230" width="230" height="590" as="geometry" />
        </mxCell>
        <mxCell id="ng6SaOLeytDzQV_BBr2D-14" value="Section 1" style="text;html=1;points=[];align=left;verticalAlign=top;spacingTop=-4;fontSize=14;fontFamily=Verdana" parent="ng6SaOLeytDzQV_BBr2D-1" vertex="1">
          <mxGeometry x="40" y="250" width="170" height="20" as="geometry" />
        </mxCell>
        <mxCell id="ng6SaOLeytDzQV_BBr2D-15" value="Section 2" style="text;html=1;points=[];align=left;verticalAlign=top;spacingTop=-4;fontSize=14;fontFamily=Verdana" parent="ng6SaOLeytDzQV_BBr2D-1" vertex="1">
          <mxGeometry x="40" y="286" width="170" height="20" as="geometry" />
        </mxCell>
        <mxCell id="ng6SaOLeytDzQV_BBr2D-16" value="Section 3" style="text;html=1;points=[];align=left;verticalAlign=top;spacingTop=-4;fontSize=14;fontFamily=Verdana" parent="ng6SaOLeytDzQV_BBr2D-1" vertex="1">
          <mxGeometry x="40" y="321" width="170" height="20" as="geometry" />
        </mxCell>
        <mxCell id="ng6SaOLeytDzQV_BBr2D-17" value="Section 4" style="text;html=1;points=[];align=left;verticalAlign=top;spacingTop=-4;fontSize=14;fontFamily=Verdana" parent="ng6SaOLeytDzQV_BBr2D-1" vertex="1">
          <mxGeometry x="40" y="357" width="170" height="20" as="geometry" />
        </mxCell>
        <mxCell id="ng6SaOLeytDzQV_BBr2D-18" value="Section 7" style="text;html=1;points=[];align=left;verticalAlign=top;spacingTop=-4;fontSize=14;fontFamily=Verdana" parent="ng6SaOLeytDzQV_BBr2D-1" vertex="1">
          <mxGeometry x="40" y="464" width="170" height="20" as="geometry" />
        </mxCell>
        <mxCell id="ng6SaOLeytDzQV_BBr2D-19" value="Section 8" style="text;html=1;points=[];align=left;verticalAlign=top;spacingTop=-4;fontSize=14;fontFamily=Verdana" parent="ng6SaOLeytDzQV_BBr2D-1" vertex="1">
          <mxGeometry x="40" y="500" width="170" height="20" as="geometry" />
        </mxCell>
        <mxCell id="ng6SaOLeytDzQV_BBr2D-20" value="Section 9" style="text;html=1;points=[];align=left;verticalAlign=top;spacingTop=-4;fontSize=14;fontFamily=Verdana" parent="ng6SaOLeytDzQV_BBr2D-1" vertex="1">
          <mxGeometry x="40" y="536" width="170" height="20" as="geometry" />
        </mxCell>
        <mxCell id="ng6SaOLeytDzQV_BBr2D-21" value="Section 10" style="text;html=1;points=[];align=left;verticalAlign=top;spacingTop=-4;fontSize=14;fontFamily=Verdana" parent="ng6SaOLeytDzQV_BBr2D-1" vertex="1">
          <mxGeometry x="40" y="571" width="170" height="20" as="geometry" />
        </mxCell>
        <mxCell id="ng6SaOLeytDzQV_BBr2D-22" value="Section 11" style="text;html=1;points=[];align=left;verticalAlign=top;spacingTop=-4;fontSize=14;fontFamily=Verdana" parent="ng6SaOLeytDzQV_BBr2D-1" vertex="1">
          <mxGeometry x="40" y="607" width="170" height="20" as="geometry" />
        </mxCell>
        <mxCell id="ng6SaOLeytDzQV_BBr2D-23" value="Section 12" style="text;html=1;points=[];align=left;verticalAlign=top;spacingTop=-4;fontSize=14;fontFamily=Verdana" parent="ng6SaOLeytDzQV_BBr2D-1" vertex="1">
          <mxGeometry x="40" y="643" width="170" height="20" as="geometry" />
        </mxCell>
        <mxCell id="ng6SaOLeytDzQV_BBr2D-24" value="Section 13" style="text;html=1;points=[];align=left;verticalAlign=top;spacingTop=-4;fontSize=14;fontFamily=Verdana" parent="ng6SaOLeytDzQV_BBr2D-1" vertex="1">
          <mxGeometry x="40" y="679" width="170" height="20" as="geometry" />
        </mxCell>
        <mxCell id="ng6SaOLeytDzQV_BBr2D-25" value="Section 14" style="text;html=1;points=[];align=left;verticalAlign=top;spacingTop=-4;fontSize=14;fontFamily=Verdana" parent="ng6SaOLeytDzQV_BBr2D-1" vertex="1">
          <mxGeometry x="40" y="714" width="170" height="20" as="geometry" />
        </mxCell>
        <mxCell id="ng6SaOLeytDzQV_BBr2D-26" value="Section 5" style="text;html=1;points=[];align=left;verticalAlign=top;spacingTop=-4;fontSize=14;fontFamily=Verdana" parent="ng6SaOLeytDzQV_BBr2D-1" vertex="1">
          <mxGeometry x="40" y="393" width="170" height="20" as="geometry" />
        </mxCell>
        <mxCell id="ng6SaOLeytDzQV_BBr2D-27" value="Section 6" style="text;html=1;points=[];align=left;verticalAlign=top;spacingTop=-4;fontSize=14;fontFamily=Verdana" parent="ng6SaOLeytDzQV_BBr2D-1" vertex="1">
          <mxGeometry x="40" y="429" width="170" height="20" as="geometry" />
        </mxCell>
        <mxCell id="ng6SaOLeytDzQV_BBr2D-28" value="Section 15" style="text;html=1;points=[];align=left;verticalAlign=top;spacingTop=-4;fontSize=14;fontFamily=Verdana" parent="ng6SaOLeytDzQV_BBr2D-1" vertex="1">
          <mxGeometry x="40" y="750" width="170" height="20" as="geometry" />
        </mxCell>
        <mxCell id="ng6SaOLeytDzQV_BBr2D-35" value="connection" style="text;html=1;points=[];align=left;verticalAlign=top;spacingTop=-4;fontSize=14;fontFamily=Verdana" parent="ng6SaOLeytDzQV_BBr2D-1" vertex="1">
          <mxGeometry x="545" y="130" width="90" height="20" as="geometry" />
        </mxCell>
        <mxCell id="ng6SaOLeytDzQV_BBr2D-36" value="inscription" style="text;html=1;points=[];align=left;verticalAlign=top;spacingTop=-4;fontSize=14;fontFamily=Verdana" parent="ng6SaOLeytDzQV_BBr2D-1" vertex="1">
          <mxGeometry x="650" y="130" width="90" height="20" as="geometry" />
        </mxCell>
        <mxCell id="ng6SaOLeytDzQV_BBr2D-37" value="" style="edgeStyle=orthogonalEdgeStyle;rounded=0;orthogonalLoop=1;jettySize=auto;html=1;" parent="ng6SaOLeytDzQV_BBr2D-1" source="ng6SaOLeytDzQV_BBr2D-38" target="ng6SaOLeytDzQV_BBr2D-39" edge="1">
          <mxGeometry relative="1" as="geometry" />
        </mxCell>
        <mxCell id="ng6SaOLeytDzQV_BBr2D-38" value="" style="rounded=0;whiteSpace=wrap;html=1;fillColor=none;" parent="ng6SaOLeytDzQV_BBr2D-1" vertex="1">
          <mxGeometry x="530" y="120" width="210" height="40" as="geometry" />
        </mxCell>
        <mxCell id="ng6SaOLeytDzQV_BBr2D-39" value="" style="rounded=0;whiteSpace=wrap;html=1;fillColor=none;" parent="ng6SaOLeytDzQV_BBr2D-1" vertex="1">
          <mxGeometry x="820" y="120" width="210" height="40" as="geometry" />
        </mxCell>
        <mxCell id="ng6SaOLeytDzQV_BBr2D-40" value="logout" style="text;html=1;points=[];align=left;verticalAlign=top;spacingTop=-4;fontSize=14;fontFamily=Verdana" parent="ng6SaOLeytDzQV_BBr2D-1" vertex="1">
          <mxGeometry x="925" y="130" width="60" height="20" as="geometry" />
        </mxCell>
        <mxCell id="ng6SaOLeytDzQV_BBr2D-41" value="HOME DESKTOP" style="rounded=0;whiteSpace=wrap;html=1;" parent="ng6SaOLeytDzQV_BBr2D-1" vertex="1">
          <mxGeometry x="980" width="120" height="40" as="geometry" />
        </mxCell>
        <mxCell id="dfl7-4zDikQHjHaV3y0W-0" value="Panel properties" style="rounded=0;whiteSpace=wrap;html=1;" vertex="1" parent="ng6SaOLeytDzQV_BBr2D-1">
          <mxGeometry x="860" y="246" width="200" height="60" as="geometry" />
        </mxCell>
      </root>
    </mxGraphModel>
  </diagram>
  <diagram name="CONNECTION DESKTOP" id="GKnaK8nBUQVOvrvpHi68">
    <mxGraphModel dx="1434" dy="836" grid="1" gridSize="10" guides="1" tooltips="1" connect="1" arrows="1" fold="1" page="1" pageScale="1" pageWidth="1100" pageHeight="850" background="#ffffff" math="0" shadow="0">
      <root>
        <mxCell id="5jg4AxjGorbETNwIut-1-0" />
        <mxCell id="5jg4AxjGorbETNwIut-1-1" parent="5jg4AxjGorbETNwIut-1-0" />
        <mxCell id="5jg4AxjGorbETNwIut-1-2" value="" style="whiteSpace=wrap;html=1;rounded=0;shadow=0;labelBackgroundColor=none;strokeWidth=1;fillColor=none;fontFamily=Verdana;fontSize=12;align=center;comic=1;" vertex="1" parent="5jg4AxjGorbETNwIut-1-1">
          <mxGeometry x="30" y="115" width="1040" height="50" as="geometry" />
        </mxCell>
        <mxCell id="5jg4AxjGorbETNwIut-1-3" value="" style="whiteSpace=wrap;html=1;rounded=0;shadow=0;labelBackgroundColor=none;strokeColor=#000000;strokeWidth=1;fillColor=none;fontFamily=Verdana;fontSize=12;fontColor=#000000;align=center;comic=1;" vertex="1" parent="5jg4AxjGorbETNwIut-1-1">
          <mxGeometry x="20" y="20" width="1060" height="810" as="geometry" />
        </mxCell>
        <mxCell id="5jg4AxjGorbETNwIut-1-4" value="LOGO" style="whiteSpace=wrap;html=1;rounded=0;shadow=0;labelBackgroundColor=none;strokeWidth=1;fontFamily=Verdana;fontSize=28;align=center;comic=1;" vertex="1" parent="5jg4AxjGorbETNwIut-1-1">
          <mxGeometry x="50" y="40" width="190" height="50" as="geometry" />
        </mxCell>
        <mxCell id="5jg4AxjGorbETNwIut-1-5" value="accueil" style="text;html=1;points=[];align=left;verticalAlign=top;spacingTop=-4;fontSize=14;fontFamily=Verdana" vertex="1" parent="5jg4AxjGorbETNwIut-1-1">
          <mxGeometry x="230" y="130" width="60" height="20" as="geometry" />
        </mxCell>
        <mxCell id="5jg4AxjGorbETNwIut-1-6" value="nom du site" style="text;html=1;points=[];align=left;verticalAlign=top;spacingTop=-4;fontSize=14;fontFamily=Verdana" vertex="1" parent="5jg4AxjGorbETNwIut-1-1">
          <mxGeometry x="417" y="50" width="123" height="25" as="geometry" />
        </mxCell>
        <mxCell id="5jg4AxjGorbETNwIut-1-7" value="" style="whiteSpace=wrap;html=1;rounded=0;shadow=0;labelBackgroundColor=none;strokeWidth=1;fillColor=none;fontFamily=Verdana;fontSize=12;align=center;comic=1;" vertex="1" parent="5jg4AxjGorbETNwIut-1-1">
          <mxGeometry x="30" y="230" width="200" height="590" as="geometry" />
        </mxCell>
        <mxCell id="5jg4AxjGorbETNwIut-1-8" value="NAV" style="text;html=1;points=[];align=left;verticalAlign=top;spacingTop=-4;fontSize=14;fontFamily=Verdana" vertex="1" parent="5jg4AxjGorbETNwIut-1-1">
          <mxGeometry x="50" y="130" width="60" height="20" as="geometry" />
        </mxCell>
        <mxCell id="5jg4AxjGorbETNwIut-1-9" value="bibliothÃ¨que" style="text;html=1;points=[];align=left;verticalAlign=top;spacingTop=-4;fontSize=14;fontFamily=Verdana" vertex="1" parent="5jg4AxjGorbETNwIut-1-1">
          <mxGeometry x="330" y="130" width="100" height="20" as="geometry" />
        </mxCell>
        <mxCell id="5jg4AxjGorbETNwIut-1-10" value="sheet" style="text;html=1;points=[];align=left;verticalAlign=top;spacingTop=-4;fontSize=14;fontFamily=Verdana" vertex="1" parent="5jg4AxjGorbETNwIut-1-1">
          <mxGeometry x="448.5" y="130" width="60" height="20" as="geometry" />
        </mxCell>
        <mxCell id="5jg4AxjGorbETNwIut-1-11" value="profil" style="text;html=1;points=[];align=left;verticalAlign=top;spacingTop=-4;fontSize=14;fontFamily=Verdana" vertex="1" parent="5jg4AxjGorbETNwIut-1-1">
          <mxGeometry x="840" y="130" width="60" height="20" as="geometry" />
        </mxCell>
        <mxCell id="5jg4AxjGorbETNwIut-1-12" value="" style="verticalLabelPosition=bottom;shadow=0;dashed=0;align=center;html=1;verticalAlign=top;strokeWidth=1;shape=mxgraph.mockup.graphics.simpleIcon;strokeColor=#999999;rounded=0;labelBackgroundColor=none;fontFamily=Verdana;fontSize=14;fontColor=#000000;comic=1;" vertex="1" parent="5jg4AxjGorbETNwIut-1-1">
          <mxGeometry x="250" y="230" width="580" height="590" as="geometry" />
        </mxCell>
        <mxCell id="5jg4AxjGorbETNwIut-1-13" value="" style="whiteSpace=wrap;html=1;rounded=0;shadow=0;labelBackgroundColor=none;strokeWidth=1;fillColor=none;fontFamily=Verdana;fontSize=12;align=center;comic=1;" vertex="1" parent="5jg4AxjGorbETNwIut-1-1">
          <mxGeometry x="840" y="230" width="230" height="590" as="geometry" />
        </mxCell>
        <mxCell id="5jg4AxjGorbETNwIut-1-14" value="Section 1" style="text;html=1;points=[];align=left;verticalAlign=top;spacingTop=-4;fontSize=14;fontFamily=Verdana" vertex="1" parent="5jg4AxjGorbETNwIut-1-1">
          <mxGeometry x="40" y="250" width="170" height="20" as="geometry" />
        </mxCell>
        <mxCell id="5jg4AxjGorbETNwIut-1-15" value="Section 2" style="text;html=1;points=[];align=left;verticalAlign=top;spacingTop=-4;fontSize=14;fontFamily=Verdana" vertex="1" parent="5jg4AxjGorbETNwIut-1-1">
          <mxGeometry x="40" y="286" width="170" height="20" as="geometry" />
        </mxCell>
        <mxCell id="5jg4AxjGorbETNwIut-1-16" value="Section 3" style="text;html=1;points=[];align=left;verticalAlign=top;spacingTop=-4;fontSize=14;fontFamily=Verdana" vertex="1" parent="5jg4AxjGorbETNwIut-1-1">
          <mxGeometry x="40" y="321" width="170" height="20" as="geometry" />
        </mxCell>
        <mxCell id="5jg4AxjGorbETNwIut-1-17" value="Section 4" style="text;html=1;points=[];align=left;verticalAlign=top;spacingTop=-4;fontSize=14;fontFamily=Verdana" vertex="1" parent="5jg4AxjGorbETNwIut-1-1">
          <mxGeometry x="40" y="357" width="170" height="20" as="geometry" />
        </mxCell>
        <mxCell id="5jg4AxjGorbETNwIut-1-18" value="Section 7" style="text;html=1;points=[];align=left;verticalAlign=top;spacingTop=-4;fontSize=14;fontFamily=Verdana" vertex="1" parent="5jg4AxjGorbETNwIut-1-1">
          <mxGeometry x="40" y="464" width="170" height="20" as="geometry" />
        </mxCell>
        <mxCell id="5jg4AxjGorbETNwIut-1-19" value="Section 8" style="text;html=1;points=[];align=left;verticalAlign=top;spacingTop=-4;fontSize=14;fontFamily=Verdana" vertex="1" parent="5jg4AxjGorbETNwIut-1-1">
          <mxGeometry x="40" y="500" width="170" height="20" as="geometry" />
        </mxCell>
        <mxCell id="5jg4AxjGorbETNwIut-1-20" value="Section 9" style="text;html=1;points=[];align=left;verticalAlign=top;spacingTop=-4;fontSize=14;fontFamily=Verdana" vertex="1" parent="5jg4AxjGorbETNwIut-1-1">
          <mxGeometry x="40" y="536" width="170" height="20" as="geometry" />
        </mxCell>
        <mxCell id="5jg4AxjGorbETNwIut-1-21" value="Section 10" style="text;html=1;points=[];align=left;verticalAlign=top;spacingTop=-4;fontSize=14;fontFamily=Verdana" vertex="1" parent="5jg4AxjGorbETNwIut-1-1">
          <mxGeometry x="40" y="571" width="170" height="20" as="geometry" />
        </mxCell>
        <mxCell id="5jg4AxjGorbETNwIut-1-22" value="Section 11" style="text;html=1;points=[];align=left;verticalAlign=top;spacingTop=-4;fontSize=14;fontFamily=Verdana" vertex="1" parent="5jg4AxjGorbETNwIut-1-1">
          <mxGeometry x="40" y="607" width="170" height="20" as="geometry" />
        </mxCell>
        <mxCell id="5jg4AxjGorbETNwIut-1-23" value="Section 12" style="text;html=1;points=[];align=left;verticalAlign=top;spacingTop=-4;fontSize=14;fontFamily=Verdana" vertex="1" parent="5jg4AxjGorbETNwIut-1-1">
          <mxGeometry x="40" y="643" width="170" height="20" as="geometry" />
        </mxCell>
        <mxCell id="5jg4AxjGorbETNwIut-1-24" value="Section 13" style="text;html=1;points=[];align=left;verticalAlign=top;spacingTop=-4;fontSize=14;fontFamily=Verdana" vertex="1" parent="5jg4AxjGorbETNwIut-1-1">
          <mxGeometry x="40" y="679" width="170" height="20" as="geometry" />
        </mxCell>
        <mxCell id="5jg4AxjGorbETNwIut-1-25" value="Section 14" style="text;html=1;points=[];align=left;verticalAlign=top;spacingTop=-4;fontSize=14;fontFamily=Verdana" vertex="1" parent="5jg4AxjGorbETNwIut-1-1">
          <mxGeometry x="40" y="714" width="170" height="20" as="geometry" />
        </mxCell>
        <mxCell id="5jg4AxjGorbETNwIut-1-26" value="Section 5" style="text;html=1;points=[];align=left;verticalAlign=top;spacingTop=-4;fontSize=14;fontFamily=Verdana" vertex="1" parent="5jg4AxjGorbETNwIut-1-1">
          <mxGeometry x="40" y="393" width="170" height="20" as="geometry" />
        </mxCell>
        <mxCell id="5jg4AxjGorbETNwIut-1-27" value="Section 6" style="text;html=1;points=[];align=left;verticalAlign=top;spacingTop=-4;fontSize=14;fontFamily=Verdana" vertex="1" parent="5jg4AxjGorbETNwIut-1-1">
          <mxGeometry x="40" y="429" width="170" height="20" as="geometry" />
        </mxCell>
        <mxCell id="5jg4AxjGorbETNwIut-1-28" value="Section 15" style="text;html=1;points=[];align=left;verticalAlign=top;spacingTop=-4;fontSize=14;fontFamily=Verdana" vertex="1" parent="5jg4AxjGorbETNwIut-1-1">
          <mxGeometry x="40" y="750" width="170" height="20" as="geometry" />
        </mxCell>
        <mxCell id="5jg4AxjGorbETNwIut-1-29" value="Feature 1" style="text;html=1;points=[];align=left;verticalAlign=top;spacingTop=-4;fontSize=14;fontFamily=Verdana" vertex="1" parent="5jg4AxjGorbETNwIut-1-1">
          <mxGeometry x="860" y="250" width="170" height="20" as="geometry" />
        </mxCell>
        <mxCell id="5jg4AxjGorbETNwIut-1-30" value="Feature 2" style="text;html=1;points=[];align=left;verticalAlign=top;spacingTop=-4;fontSize=14;fontFamily=Verdana" vertex="1" parent="5jg4AxjGorbETNwIut-1-1">
          <mxGeometry x="860" y="285" width="170" height="20" as="geometry" />
        </mxCell>
        <mxCell id="5jg4AxjGorbETNwIut-1-31" value="Feature 3" style="text;html=1;points=[];align=left;verticalAlign=top;spacingTop=-4;fontSize=14;fontFamily=Verdana" vertex="1" parent="5jg4AxjGorbETNwIut-1-1">
          <mxGeometry x="860" y="320" width="170" height="20" as="geometry" />
        </mxCell>
        <mxCell id="5jg4AxjGorbETNwIut-1-32" value="Feature 4" style="text;html=1;points=[];align=left;verticalAlign=top;spacingTop=-4;fontSize=14;fontFamily=Verdana" vertex="1" parent="5jg4AxjGorbETNwIut-1-1">
          <mxGeometry x="860" y="355" width="170" height="20" as="geometry" />
        </mxCell>
        <mxCell id="5jg4AxjGorbETNwIut-1-33" value="Feature 5" style="text;html=1;points=[];align=left;verticalAlign=top;spacingTop=-4;fontSize=14;fontFamily=Verdana" vertex="1" parent="5jg4AxjGorbETNwIut-1-1">
          <mxGeometry x="860" y="390" width="170" height="20" as="geometry" />
        </mxCell>
        <mxCell id="5jg4AxjGorbETNwIut-1-34" value="Feature 6" style="text;html=1;points=[];align=left;verticalAlign=top;spacingTop=-4;fontSize=14;fontFamily=Verdana" vertex="1" parent="5jg4AxjGorbETNwIut-1-1">
          <mxGeometry x="860" y="425" width="170" height="20" as="geometry" />
        </mxCell>
        <mxCell id="5jg4AxjGorbETNwIut-1-35" value="connection" style="text;html=1;points=[];align=left;verticalAlign=top;spacingTop=-4;fontSize=14;fontFamily=Verdana" vertex="1" parent="5jg4AxjGorbETNwIut-1-1">
          <mxGeometry x="545" y="130" width="90" height="20" as="geometry" />
        </mxCell>
        <mxCell id="5jg4AxjGorbETNwIut-1-36" value="inscription" style="text;html=1;points=[];align=left;verticalAlign=top;spacingTop=-4;fontSize=14;fontFamily=Verdana" vertex="1" parent="5jg4AxjGorbETNwIut-1-1">
          <mxGeometry x="650" y="130" width="90" height="20" as="geometry" />
        </mxCell>
        <mxCell id="5jg4AxjGorbETNwIut-1-37" value="" style="edgeStyle=orthogonalEdgeStyle;rounded=0;orthogonalLoop=1;jettySize=auto;html=1;" edge="1" parent="5jg4AxjGorbETNwIut-1-1" source="5jg4AxjGorbETNwIut-1-38" target="5jg4AxjGorbETNwIut-1-39">
          <mxGeometry relative="1" as="geometry" />
        </mxCell>
        <mxCell id="5jg4AxjGorbETNwIut-1-38" value="" style="rounded=0;whiteSpace=wrap;html=1;fillColor=none;" vertex="1" parent="5jg4AxjGorbETNwIut-1-1">
          <mxGeometry x="530" y="120" width="210" height="40" as="geometry" />
        </mxCell>
        <mxCell id="5jg4AxjGorbETNwIut-1-39" value="" style="rounded=0;whiteSpace=wrap;html=1;fillColor=none;" vertex="1" parent="5jg4AxjGorbETNwIut-1-1">
          <mxGeometry x="820" y="120" width="210" height="40" as="geometry" />
        </mxCell>
        <mxCell id="5jg4AxjGorbETNwIut-1-40" value="logout" style="text;html=1;points=[];align=left;verticalAlign=top;spacingTop=-4;fontSize=14;fontFamily=Verdana" vertex="1" parent="5jg4AxjGorbETNwIut-1-1">
          <mxGeometry x="925" y="130" width="60" height="20" as="geometry" />
        </mxCell>
        <mxCell id="5jg4AxjGorbETNwIut-1-41" value="HOME DESKTOP" style="rounded=0;whiteSpace=wrap;html=1;" vertex="1" parent="5jg4AxjGorbETNwIut-1-1">
          <mxGeometry x="980" width="120" height="40" as="geometry" />
        </mxCell>
      </root>
    </mxGraphModel>
  </diagram>
  <diagram name="INSCRIPTION DESKTOP" id="lzjYxdzA_QE7EEuE21cZ">
    <mxGraphModel dx="1434" dy="836" grid="1" gridSize="10" guides="1" tooltips="1" connect="1" arrows="1" fold="1" page="1" pageScale="1" pageWidth="1100" pageHeight="850" background="#ffffff" math="0" shadow="0">
      <root>
        <mxCell id="H7KtvwVXY3PNQQ1vRD-k-0" />
        <mxCell id="H7KtvwVXY3PNQQ1vRD-k-1" parent="H7KtvwVXY3PNQQ1vRD-k-0" />
        <mxCell id="H7KtvwVXY3PNQQ1vRD-k-2" value="" style="whiteSpace=wrap;html=1;rounded=0;shadow=0;labelBackgroundColor=none;strokeWidth=1;fillColor=none;fontFamily=Verdana;fontSize=12;align=center;comic=1;" vertex="1" parent="H7KtvwVXY3PNQQ1vRD-k-1">
          <mxGeometry x="30" y="115" width="1040" height="50" as="geometry" />
        </mxCell>
        <mxCell id="H7KtvwVXY3PNQQ1vRD-k-3" value="" style="whiteSpace=wrap;html=1;rounded=0;shadow=0;labelBackgroundColor=none;strokeColor=#000000;strokeWidth=1;fillColor=none;fontFamily=Verdana;fontSize=12;fontColor=#000000;align=center;comic=1;" vertex="1" parent="H7KtvwVXY3PNQQ1vRD-k-1">
          <mxGeometry x="20" y="20" width="1060" height="810" as="geometry" />
        </mxCell>
        <mxCell id="H7KtvwVXY3PNQQ1vRD-k-4" value="LOGO" style="whiteSpace=wrap;html=1;rounded=0;shadow=0;labelBackgroundColor=none;strokeWidth=1;fontFamily=Verdana;fontSize=28;align=center;comic=1;" vertex="1" parent="H7KtvwVXY3PNQQ1vRD-k-1">
          <mxGeometry x="50" y="40" width="190" height="50" as="geometry" />
        </mxCell>
        <mxCell id="H7KtvwVXY3PNQQ1vRD-k-5" value="accueil" style="text;html=1;points=[];align=left;verticalAlign=top;spacingTop=-4;fontSize=14;fontFamily=Verdana" vertex="1" parent="H7KtvwVXY3PNQQ1vRD-k-1">
          <mxGeometry x="230" y="130" width="60" height="20" as="geometry" />
        </mxCell>
        <mxCell id="H7KtvwVXY3PNQQ1vRD-k-6" value="nom du site" style="text;html=1;points=[];align=left;verticalAlign=top;spacingTop=-4;fontSize=14;fontFamily=Verdana" vertex="1" parent="H7KtvwVXY3PNQQ1vRD-k-1">
          <mxGeometry x="417" y="50" width="123" height="25" as="geometry" />
        </mxCell>
        <mxCell id="H7KtvwVXY3PNQQ1vRD-k-7" value="" style="whiteSpace=wrap;html=1;rounded=0;shadow=0;labelBackgroundColor=none;strokeWidth=1;fillColor=none;fontFamily=Verdana;fontSize=12;align=center;comic=1;" vertex="1" parent="H7KtvwVXY3PNQQ1vRD-k-1">
          <mxGeometry x="30" y="230" width="200" height="590" as="geometry" />
        </mxCell>
        <mxCell id="H7KtvwVXY3PNQQ1vRD-k-8" value="NAV" style="text;html=1;points=[];align=left;verticalAlign=top;spacingTop=-4;fontSize=14;fontFamily=Verdana" vertex="1" parent="H7KtvwVXY3PNQQ1vRD-k-1">
          <mxGeometry x="50" y="130" width="60" height="20" as="geometry" />
        </mxCell>
        <mxCell id="H7KtvwVXY3PNQQ1vRD-k-9" value="bibliothÃ¨que" style="text;html=1;points=[];align=left;verticalAlign=top;spacingTop=-4;fontSize=14;fontFamily=Verdana" vertex="1" parent="H7KtvwVXY3PNQQ1vRD-k-1">
          <mxGeometry x="330" y="130" width="100" height="20" as="geometry" />
        </mxCell>
        <mxCell id="H7KtvwVXY3PNQQ1vRD-k-10" value="sheet" style="text;html=1;points=[];align=left;verticalAlign=top;spacingTop=-4;fontSize=14;fontFamily=Verdana" vertex="1" parent="H7KtvwVXY3PNQQ1vRD-k-1">
          <mxGeometry x="448.5" y="130" width="60" height="20" as="geometry" />
        </mxCell>
        <mxCell id="H7KtvwVXY3PNQQ1vRD-k-11" value="profil" style="text;html=1;points=[];align=left;verticalAlign=top;spacingTop=-4;fontSize=14;fontFamily=Verdana" vertex="1" parent="H7KtvwVXY3PNQQ1vRD-k-1">
          <mxGeometry x="840" y="130" width="60" height="20" as="geometry" />
        </mxCell>
        <mxCell id="H7KtvwVXY3PNQQ1vRD-k-12" value="" style="verticalLabelPosition=bottom;shadow=0;dashed=0;align=center;html=1;verticalAlign=top;strokeWidth=1;shape=mxgraph.mockup.graphics.simpleIcon;strokeColor=#999999;rounded=0;labelBackgroundColor=none;fontFamily=Verdana;fontSize=14;fontColor=#000000;comic=1;" vertex="1" parent="H7KtvwVXY3PNQQ1vRD-k-1">
          <mxGeometry x="250" y="230" width="580" height="590" as="geometry" />
        </mxCell>
        <mxCell id="H7KtvwVXY3PNQQ1vRD-k-13" value="" style="whiteSpace=wrap;html=1;rounded=0;shadow=0;labelBackgroundColor=none;strokeWidth=1;fillColor=none;fontFamily=Verdana;fontSize=12;align=center;comic=1;" vertex="1" parent="H7KtvwVXY3PNQQ1vRD-k-1">
          <mxGeometry x="840" y="230" width="230" height="590" as="geometry" />
        </mxCell>
        <mxCell id="H7KtvwVXY3PNQQ1vRD-k-14" value="Section 1" style="text;html=1;points=[];align=left;verticalAlign=top;spacingTop=-4;fontSize=14;fontFamily=Verdana" vertex="1" parent="H7KtvwVXY3PNQQ1vRD-k-1">
          <mxGeometry x="40" y="250" width="170" height="20" as="geometry" />
        </mxCell>
        <mxCell id="H7KtvwVXY3PNQQ1vRD-k-15" value="Section 2" style="text;html=1;points=[];align=left;verticalAlign=top;spacingTop=-4;fontSize=14;fontFamily=Verdana" vertex="1" parent="H7KtvwVXY3PNQQ1vRD-k-1">
          <mxGeometry x="40" y="286" width="170" height="20" as="geometry" />
        </mxCell>
        <mxCell id="H7KtvwVXY3PNQQ1vRD-k-16" value="Section 3" style="text;html=1;points=[];align=left;verticalAlign=top;spacingTop=-4;fontSize=14;fontFamily=Verdana" vertex="1" parent="H7KtvwVXY3PNQQ1vRD-k-1">
          <mxGeometry x="40" y="321" width="170" height="20" as="geometry" />
        </mxCell>
        <mxCell id="H7KtvwVXY3PNQQ1vRD-k-17" value="Section 4" style="text;html=1;points=[];align=left;verticalAlign=top;spacingTop=-4;fontSize=14;fontFamily=Verdana" vertex="1" parent="H7KtvwVXY3PNQQ1vRD-k-1">
          <mxGeometry x="40" y="357" width="170" height="20" as="geometry" />
        </mxCell>
        <mxCell id="H7KtvwVXY3PNQQ1vRD-k-18" value="Section 7" style="text;html=1;points=[];align=left;verticalAlign=top;spacingTop=-4;fontSize=14;fontFamily=Verdana" vertex="1" parent="H7KtvwVXY3PNQQ1vRD-k-1">
          <mxGeometry x="40" y="464" width="170" height="20" as="geometry" />
        </mxCell>
        <mxCell id="H7KtvwVXY3PNQQ1vRD-k-19" value="Section 8" style="text;html=1;points=[];align=left;verticalAlign=top;spacingTop=-4;fontSize=14;fontFamily=Verdana" vertex="1" parent="H7KtvwVXY3PNQQ1vRD-k-1">
          <mxGeometry x="40" y="500" width="170" height="20" as="geometry" />
        </mxCell>
        <mxCell id="H7KtvwVXY3PNQQ1vRD-k-20" value="Section 9" style="text;html=1;points=[];align=left;verticalAlign=top;spacingTop=-4;fontSize=14;fontFamily=Verdana" vertex="1" parent="H7KtvwVXY3PNQQ1vRD-k-1">
          <mxGeometry x="40" y="536" width="170" height="20" as="geometry" />
        </mxCell>
        <mxCell id="H7KtvwVXY3PNQQ1vRD-k-21" value="Section 10" style="text;html=1;points=[];align=left;verticalAlign=top;spacingTop=-4;fontSize=14;fontFamily=Verdana" vertex="1" parent="H7KtvwVXY3PNQQ1vRD-k-1">
          <mxGeometry x="40" y="571" width="170" height="20" as="geometry" />
        </mxCell>
        <mxCell id="H7KtvwVXY3PNQQ1vRD-k-22" value="Section 11" style="text;html=1;points=[];align=left;verticalAlign=top;spacingTop=-4;fontSize=14;fontFamily=Verdana" vertex="1" parent="H7KtvwVXY3PNQQ1vRD-k-1">
          <mxGeometry x="40" y="607" width="170" height="20" as="geometry" />
        </mxCell>
        <mxCell id="H7KtvwVXY3PNQQ1vRD-k-23" value="Section 12" style="text;html=1;points=[];align=left;verticalAlign=top;spacingTop=-4;fontSize=14;fontFamily=Verdana" vertex="1" parent="H7KtvwVXY3PNQQ1vRD-k-1">
          <mxGeometry x="40" y="643" width="170" height="20" as="geometry" />
        </mxCell>
        <mxCell id="H7KtvwVXY3PNQQ1vRD-k-24" value="Section 13" style="text;html=1;points=[];align=left;verticalAlign=top;spacingTop=-4;fontSize=14;fontFamily=Verdana" vertex="1" parent="H7KtvwVXY3PNQQ1vRD-k-1">
          <mxGeometry x="40" y="679" width="170" height="20" as="geometry" />
        </mxCell>
        <mxCell id="H7KtvwVXY3PNQQ1vRD-k-25" value="Section 14" style="text;html=1;points=[];align=left;verticalAlign=top;spacingTop=-4;fontSize=14;fontFamily=Verdana" vertex="1" parent="H7KtvwVXY3PNQQ1vRD-k-1">
          <mxGeometry x="40" y="714" width="170" height="20" as="geometry" />
        </mxCell>
        <mxCell id="H7KtvwVXY3PNQQ1vRD-k-26" value="Section 5" style="text;html=1;points=[];align=left;verticalAlign=top;spacingTop=-4;fontSize=14;fontFamily=Verdana" vertex="1" parent="H7KtvwVXY3PNQQ1vRD-k-1">
          <mxGeometry x="40" y="393" width="170" height="20" as="geometry" />
        </mxCell>
        <mxCell id="H7KtvwVXY3PNQQ1vRD-k-27" value="Section 6" style="text;html=1;points=[];align=left;verticalAlign=top;spacingTop=-4;fontSize=14;fontFamily=Verdana" vertex="1" parent="H7KtvwVXY3PNQQ1vRD-k-1">
          <mxGeometry x="40" y="429" width="170" height="20" as="geometry" />
        </mxCell>
        <mxCell id="H7KtvwVXY3PNQQ1vRD-k-28" value="Section 15" style="text;html=1;points=[];align=left;verticalAlign=top;spacingTop=-4;fontSize=14;fontFamily=Verdana" vertex="1" parent="H7KtvwVXY3PNQQ1vRD-k-1">
          <mxGeometry x="40" y="750" width="170" height="20" as="geometry" />
        </mxCell>
        <mxCell id="H7KtvwVXY3PNQQ1vRD-k-29" value="Feature 1" style="text;html=1;points=[];align=left;verticalAlign=top;spacingTop=-4;fontSize=14;fontFamily=Verdana" vertex="1" parent="H7KtvwVXY3PNQQ1vRD-k-1">
          <mxGeometry x="860" y="250" width="170" height="20" as="geometry" />
        </mxCell>
        <mxCell id="H7KtvwVXY3PNQQ1vRD-k-30" value="Feature 2" style="text;html=1;points=[];align=left;verticalAlign=top;spacingTop=-4;fontSize=14;fontFamily=Verdana" vertex="1" parent="H7KtvwVXY3PNQQ1vRD-k-1">
          <mxGeometry x="860" y="285" width="170" height="20" as="geometry" />
        </mxCell>
        <mxCell id="H7KtvwVXY3PNQQ1vRD-k-31" value="Feature 3" style="text;html=1;points=[];align=left;verticalAlign=top;spacingTop=-4;fontSize=14;fontFamily=Verdana" vertex="1" parent="H7KtvwVXY3PNQQ1vRD-k-1">
          <mxGeometry x="860" y="320" width="170" height="20" as="geometry" />
        </mxCell>
        <mxCell id="H7KtvwVXY3PNQQ1vRD-k-32" value="Feature 4" style="text;html=1;points=[];align=left;verticalAlign=top;spacingTop=-4;fontSize=14;fontFamily=Verdana" vertex="1" parent="H7KtvwVXY3PNQQ1vRD-k-1">
          <mxGeometry x="860" y="355" width="170" height="20" as="geometry" />
        </mxCell>
        <mxCell id="H7KtvwVXY3PNQQ1vRD-k-33" value="Feature 5" style="text;html=1;points=[];align=left;verticalAlign=top;spacingTop=-4;fontSize=14;fontFamily=Verdana" vertex="1" parent="H7KtvwVXY3PNQQ1vRD-k-1">
          <mxGeometry x="860" y="390" width="170" height="20" as="geometry" />
        </mxCell>
        <mxCell id="H7KtvwVXY3PNQQ1vRD-k-34" value="Feature 6" style="text;html=1;points=[];align=left;verticalAlign=top;spacingTop=-4;fontSize=14;fontFamily=Verdana" vertex="1" parent="H7KtvwVXY3PNQQ1vRD-k-1">
          <mxGeometry x="860" y="425" width="170" height="20" as="geometry" />
        </mxCell>
        <mxCell id="H7KtvwVXY3PNQQ1vRD-k-35" value="connection" style="text;html=1;points=[];align=left;verticalAlign=top;spacingTop=-4;fontSize=14;fontFamily=Verdana" vertex="1" parent="H7KtvwVXY3PNQQ1vRD-k-1">
          <mxGeometry x="545" y="130" width="90" height="20" as="geometry" />
        </mxCell>
        <mxCell id="H7KtvwVXY3PNQQ1vRD-k-36" value="inscription" style="text;html=1;points=[];align=left;verticalAlign=top;spacingTop=-4;fontSize=14;fontFamily=Verdana" vertex="1" parent="H7KtvwVXY3PNQQ1vRD-k-1">
          <mxGeometry x="650" y="130" width="90" height="20" as="geometry" />
        </mxCell>
        <mxCell id="H7KtvwVXY3PNQQ1vRD-k-37" value="" style="edgeStyle=orthogonalEdgeStyle;rounded=0;orthogonalLoop=1;jettySize=auto;html=1;" edge="1" parent="H7KtvwVXY3PNQQ1vRD-k-1" source="H7KtvwVXY3PNQQ1vRD-k-38" target="H7KtvwVXY3PNQQ1vRD-k-39">
          <mxGeometry relative="1" as="geometry" />
        </mxCell>
        <mxCell id="H7KtvwVXY3PNQQ1vRD-k-38" value="" style="rounded=0;whiteSpace=wrap;html=1;fillColor=none;" vertex="1" parent="H7KtvwVXY3PNQQ1vRD-k-1">
          <mxGeometry x="530" y="120" width="210" height="40" as="geometry" />
        </mxCell>
        <mxCell id="H7KtvwVXY3PNQQ1vRD-k-39" value="" style="rounded=0;whiteSpace=wrap;html=1;fillColor=none;" vertex="1" parent="H7KtvwVXY3PNQQ1vRD-k-1">
          <mxGeometry x="820" y="120" width="210" height="40" as="geometry" />
        </mxCell>
        <mxCell id="H7KtvwVXY3PNQQ1vRD-k-40" value="logout" style="text;html=1;points=[];align=left;verticalAlign=top;spacingTop=-4;fontSize=14;fontFamily=Verdana" vertex="1" parent="H7KtvwVXY3PNQQ1vRD-k-1">
          <mxGeometry x="925" y="130" width="60" height="20" as="geometry" />
        </mxCell>
        <mxCell id="H7KtvwVXY3PNQQ1vRD-k-41" value="HOME DESKTOP" style="rounded=0;whiteSpace=wrap;html=1;" vertex="1" parent="H7KtvwVXY3PNQQ1vRD-k-1">
          <mxGeometry x="980" width="120" height="40" as="geometry" />
        </mxCell>
      </root>
    </mxGraphModel>
  </diagram>
</mxfile>
